<svg width="19" height="19" viewBox="0 0 19 19" fill="none" xmlns="http://www.w3.org/2000/svg">
<circle cx="9.5" cy="9.5" r="8.5" fill="white" stroke="black" stroke-width="0.3"/>
<path d="M9.24667 7.77335C9.21542 7.73897 9.17734 7.71151 9.13486 7.69272C9.09239 7.67392 9.04645 7.66422 9 7.66422C8.95355 7.66422 8.90761 7.67392 8.86513 7.69272C8.82266 7.71151 8.78458 7.73897 8.75333 7.77335L5.75333 11.1067C5.7091 11.1544 5.67978 11.214 5.669 11.2781C5.65823 11.3423 5.66646 11.4082 5.69268 11.4677C5.7189 11.5273 5.76197 11.5778 5.81658 11.6132C5.87119 11.6485 5.93495 11.6671 6 11.6667H6.66667V14C6.66667 14.0884 6.70179 14.1732 6.7643 14.2357C6.82681 14.2982 6.91159 14.3333 7 14.3333H11C11.0884 14.3333 11.1732 14.2982 11.2357 14.2357C11.2982 14.1732 11.3333 14.0884 11.3333 14V11.6667H12C12.0884 11.6667 12.1732 11.6316 12.2357 11.569C12.2982 11.5065 12.3333 11.4218 12.3333 11.3333C12.3339 11.2496 12.303 11.1687 12.2467 11.1067L9.24667 7.77335Z" fill="black"/>
<path d="M6 6.16667L9.25 4V6.16667H6Z" fill="black"/>
<path d="M9 6V10" stroke="black" stroke-width="0.5"/>
<path d="M10.4243 7V3.06299H11.7805C12.0867 3.06299 12.3203 3.08179 12.4814 3.11938C12.707 3.17131 12.8995 3.2653 13.0588 3.40137C13.2665 3.57682 13.4214 3.80151 13.5234 4.07544C13.6273 4.34757 13.6792 4.6591 13.6792 5.01001C13.6792 5.309 13.6443 5.57397 13.5745 5.80493C13.5046 6.03589 13.4151 6.22746 13.3059 6.37964C13.1967 6.53003 13.0767 6.64909 12.946 6.73682C12.8171 6.82275 12.6605 6.8881 12.4761 6.93286C12.2935 6.97762 12.0831 7 11.845 7H10.4243ZM10.9453 6.5354H11.7859C12.0455 6.5354 12.2487 6.51123 12.3955 6.46289C12.5441 6.41455 12.6623 6.34652 12.75 6.25879C12.8735 6.13525 12.9693 5.96965 13.0374 5.76196C13.1072 5.55249 13.1421 5.29915 13.1421 5.00195C13.1421 4.59017 13.0741 4.27417 12.938 4.05396C12.8037 3.83195 12.6399 3.68335 12.4465 3.60815C12.3069 3.55444 12.0822 3.52759 11.7725 3.52759H10.9453V6.5354Z" fill="black"/>
</svg>
