<svg width="19" height="19" viewBox="0 0 19 19" fill="none" xmlns="http://www.w3.org/2000/svg">
<circle cx="9.5" cy="9.5" r="8.5" fill="white" stroke="black" stroke-width="0.3"/>
<g clip-path="url(#clip0_7_34)">
<path d="M10.8078 9.49299L12.6019 7.93432V11.0339L10.8078 9.49299ZM8.49608 9.75695L9.12608 10.3038C9.22496 10.3878 9.35387 10.4386 9.49475 10.4386H9.49971H9.49942H9.5035C9.64467 10.4386 9.77358 10.3875 9.87362 10.3029L9.87275 10.3035L10.5027 9.75666L12.4178 11.4014H6.58187L8.49608 9.75695ZM6.57925 7.56478H12.4213L9.61521 10.0019C9.58366 10.0269 9.5446 10.0405 9.50437 10.0404H9.50029H9.50058H9.4965C9.45613 10.0405 9.41694 10.0268 9.38538 10.0017L9.38567 10.0019L6.57925 7.56478ZM6.39812 7.93403L8.19187 9.4927L6.39812 11.0327V7.93403ZM12.6981 7.22207C12.6281 7.18707 12.5459 7.16666 12.4587 7.16666H6.54221C6.45767 7.16668 6.3743 7.18635 6.29867 7.22411L6.30187 7.22266C6.21133 7.26731 6.13508 7.3364 6.08174 7.42211C6.0284 7.50782 6.00008 7.60674 6 7.7077V11.2579C6.00015 11.4015 6.0573 11.5393 6.15889 11.6409C6.26049 11.7425 6.39824 11.7996 6.54192 11.7998H12.4578C12.6015 11.7996 12.7392 11.7425 12.8408 11.6409C12.9424 11.5393 12.9996 11.4015 12.9997 11.2579V7.7077C12.9997 7.49566 12.8775 7.31191 12.6996 7.22353L12.6964 7.22207H12.6981Z" fill="black"/>
</g>
<defs>
<clipPath id="clip0_7_34">
<rect width="7" height="7" fill="white" transform="translate(6 6)"/>
</clipPath>
</defs>
</svg>
