<svg width="19" height="19" viewBox="0 0 19 19" fill="none" xmlns="http://www.w3.org/2000/svg">
<circle cx="9.5" cy="9.5" r="8.5" fill="white" stroke="black" stroke-width="0.3"/>
<path d="M13.82 8.05999C13.82 7.96099 13.739 7.87999 13.64 7.87999H11.3C11.201 7.87999 11.12 7.79899 11.12 7.69999V5.35999C11.12 5.26099 11.039 5.17999 10.94 5.17999H8.06C7.961 5.17999 7.88 5.26099 7.88 5.35999V7.69999C7.88 7.79899 7.799 7.87999 7.7 7.87999H5.36C5.261 7.87999 5.18 7.96099 5.18 8.05999V10.94C5.18 11.039 5.261 11.12 5.36 11.12H7.7C7.799 11.12 7.88 11.201 7.88 11.3V13.64C7.88 13.739 7.961 13.82 8.06 13.82H10.94C11.039 13.82 11.12 13.739 11.12 13.64V11.3C11.12 11.201 11.201 11.12 11.3 11.12H13.64C13.739 11.12 13.82 11.039 13.82 10.94V8.05999Z" fill="#E69900"/>
</svg>
