<svg width="19" height="19" viewBox="0 0 19 19" fill="none" xmlns="http://www.w3.org/2000/svg">
<circle cx="9.5" cy="9.5" r="8.5" fill="white" stroke="black" stroke-width="0.3"/>
<g clip-path="url(#clip0_7_32)">
<path d="M5.5625 6.59074C6.06031 6.38262 6.77412 6.15818 7.46825 6.08843C8.21638 6.01306 8.85087 6.12387 9.21875 6.51143V11.9936C8.69281 11.6954 8.02625 11.6544 7.41144 11.7162C6.74769 11.7837 6.07831 11.9756 5.5625 12.1724V6.59074ZM9.78125 6.51143C10.1491 6.12387 10.7836 6.01306 11.5318 6.08843C12.2259 6.15818 12.9397 6.38262 13.4375 6.59074V12.1724C12.9211 11.9756 12.2523 11.7832 11.5886 11.7168C10.9732 11.6544 10.3072 11.6949 9.78125 11.9936V6.51143ZM9.5 6.00293C8.94594 5.52649 8.14269 5.45562 7.41144 5.52874C6.55981 5.61481 5.70031 5.90674 5.16481 6.15031C5.11568 6.17265 5.07401 6.20867 5.04479 6.25405C5.01556 6.29943 5.00001 6.35227 5 6.40624V12.5937C5.00001 12.6408 5.01183 12.6871 5.03438 12.7284C5.05692 12.7697 5.08947 12.8047 5.12904 12.8302C5.16861 12.8556 5.21394 12.8708 5.26088 12.8742C5.30781 12.8776 5.35485 12.8692 5.39769 12.8497C5.89381 12.6247 6.69313 12.3541 7.46769 12.2759C8.26025 12.1961 8.92456 12.3249 9.28062 12.7692C9.30698 12.8021 9.34037 12.8286 9.37834 12.8468C9.41631 12.865 9.45789 12.8745 9.5 12.8745C9.54211 12.8745 9.58369 12.865 9.62166 12.8468C9.65963 12.8286 9.69302 12.8021 9.71938 12.7692C10.0754 12.3249 10.7398 12.1961 11.5318 12.2759C12.3069 12.3541 13.1068 12.6247 13.6023 12.8497C13.6451 12.8692 13.6922 12.8776 13.7391 12.8742C13.7861 12.8708 13.8314 12.8556 13.871 12.8302C13.9105 12.8047 13.9431 12.7697 13.9656 12.7284C13.9882 12.6871 14 12.6408 14 12.5937V6.40624C14 6.35227 13.9844 6.29943 13.9552 6.25405C13.926 6.20867 13.8843 6.17265 13.8352 6.15031C13.2997 5.90674 12.4402 5.61481 11.5886 5.52874C10.8573 5.45506 10.0541 5.52649 9.5 6.00293Z" fill="#3554C2"/>
</g>
<rect x="6" y="5" width="7" height="6" fill="white"/>
<g clip-path="url(#clip1_7_32)">
<path d="M6.4375 5.414C6.82469 5.229 7.37988 5.0295 7.91975 4.9675C8.50163 4.9005 8.99513 4.999 9.28125 5.3435V10.2165C8.87219 9.9515 8.35375 9.915 7.87556 9.97C7.35931 10.03 6.83869 10.2005 6.4375 10.3755V5.414ZM9.71875 5.3435C10.0049 4.999 10.4984 4.9005 11.0803 4.9675C11.6201 5.0295 12.1753 5.229 12.5625 5.414V10.3755C12.1609 10.2005 11.6407 10.0295 11.1244 9.9705C10.6458 9.915 10.1278 9.951 9.71875 10.2165V5.3435ZM9.5 4.8915C9.06906 4.468 8.44431 4.405 7.87556 4.47C7.21319 4.5465 6.54469 4.806 6.12819 5.0225C6.08997 5.04237 6.05756 5.07438 6.03483 5.11472C6.0121 5.15506 6.00001 5.20202 6 5.25V10.75C6.00001 10.7918 6.0092 10.833 6.02674 10.8697C6.04427 10.9064 6.06959 10.9375 6.10037 10.9602C6.13114 10.9828 6.1664 10.9962 6.20291 10.9993C6.23941 11.0023 6.276 10.9948 6.30931 10.9775C6.69519 10.7775 7.31688 10.537 7.91931 10.4675C8.53575 10.3965 9.05244 10.511 9.32938 10.906C9.34987 10.9352 9.37585 10.9588 9.40538 10.975C9.43491 10.9911 9.46725 10.9996 9.5 10.9996C9.53275 10.9996 9.56509 10.9911 9.59462 10.975C9.62415 10.9588 9.65013 10.9352 9.67063 10.906C9.94756 10.511 10.4643 10.3965 11.0803 10.4675C11.6831 10.537 12.3053 10.7775 12.6907 10.9775C12.724 10.9948 12.7606 11.0023 12.7971 10.9993C12.8336 10.9962 12.8689 10.9828 12.8996 10.9602C12.9304 10.9375 12.9557 10.9064 12.9733 10.8697C12.9908 10.833 13 10.7918 13 10.75V5.25C13 5.20202 12.9879 5.15506 12.9652 5.11472C12.9424 5.07438 12.91 5.04237 12.8718 5.0225C12.4553 4.806 11.7868 4.5465 11.1244 4.47C10.5557 4.4045 9.93094 4.468 9.5 4.8915Z" fill="#3554C2"/>
</g>
<path d="M6.4375 5.59076C6.82469 5.38263 7.37987 5.1582 7.91975 5.08845C8.50163 5.01307 8.99513 5.12388 9.28125 5.51145V10.9936C8.87219 10.6954 8.35375 10.6544 7.87556 10.7163C7.35931 10.7838 6.83869 10.9756 6.4375 11.1724V5.59076ZM9.71875 5.51145C10.0049 5.12388 10.4984 5.01307 11.0803 5.08845C11.6201 5.1582 12.1753 5.38263 12.5625 5.59076V11.1724C12.1609 10.9756 11.6407 10.7832 11.1244 10.7168C10.6458 10.6544 10.1278 10.6949 9.71875 10.9936V5.51145ZM9.5 5.00295C9.06906 4.52651 8.44431 4.45563 7.87556 4.52876C7.21319 4.61482 6.54469 4.90676 6.12819 5.15032C6.08997 5.17267 6.05756 5.20868 6.03483 5.25407C6.0121 5.29945 6.00001 5.35228 6 5.40626V11.5938C6.00001 11.6408 6.0092 11.6871 6.02674 11.7284C6.04427 11.7697 6.06959 11.8047 6.10037 11.8302C6.13114 11.8557 6.1664 11.8708 6.20291 11.8742C6.23941 11.8776 6.276 11.8692 6.30931 11.8497C6.69519 11.6247 7.31687 11.3541 7.91931 11.2759C8.53575 11.1961 9.05244 11.3249 9.32938 11.7693C9.34987 11.8021 9.37585 11.8286 9.40538 11.8468C9.43491 11.8651 9.46725 11.8745 9.5 11.8745C9.53275 11.8745 9.56509 11.8651 9.59462 11.8468C9.62415 11.8286 9.65013 11.8021 9.67063 11.7693C9.94756 11.3249 10.4643 11.1961 11.0803 11.2759C11.6831 11.3541 12.3053 11.6247 12.6907 11.8497C12.724 11.8692 12.7606 11.8776 12.7971 11.8742C12.8336 11.8708 12.8689 11.8557 12.8996 11.8302C12.9304 11.8047 12.9557 11.7697 12.9733 11.7284C12.9908 11.6871 13 11.6408 13 11.5938V5.40626C13 5.35228 12.9879 5.29945 12.9652 5.25407C12.9424 5.20868 12.91 5.17267 12.8718 5.15032C12.4553 4.90676 11.7868 4.61482 11.1244 4.52876C10.5557 4.45507 9.93094 4.52651 9.5 5.00295Z" fill="#3554C2"/>
<defs>
<clipPath id="clip0_7_32">
<rect width="9" height="9" fill="white" transform="translate(5 5)"/>
</clipPath>
<clipPath id="clip1_7_32">
<rect width="7" height="8" fill="white" transform="translate(6 4)"/>
</clipPath>
</defs>
</svg>
