<svg width="19" height="19" viewBox="0 0 19 19" fill="none" xmlns="http://www.w3.org/2000/svg">
<circle cx="9.5" cy="9.5" r="8.5" fill="white" stroke="black" stroke-width="0.3"/>
<path d="M7.375 6.75C7.375 6.33574 7.71074 6 8.125 6H10C10.4137 6 10.75 6.33574 10.75 6.75V9H10.8438C11.4133 9 11.875 9.46172 11.875 10.0312V10.4062C11.875 10.5621 12.0004 10.6875 12.1562 10.6875C12.3121 10.6875 12.4375 10.5621 12.4375 10.4062V8.59102C12.1141 8.51836 11.875 8.22422 11.875 7.875V7.125L11.5 6.75C11.3969 6.64641 11.3969 6.47859 11.5 6.375C11.6031 6.27141 11.7719 6.27141 11.875 6.375L12.7809 7.28086C12.9215 7.42148 13 7.61133 13 7.81055V10.4062C13 10.8727 12.6227 11.25 12.1562 11.25C11.6898 11.25 11.3125 10.8727 11.3125 10.4062V10.0312C11.3125 9.77227 11.1027 9.55195 10.8438 9.55195H10.75V11.25C10.9574 11.25 11.125 11.4176 11.125 11.625C11.125 11.8324 10.9574 12 10.75 12H7.375C7.16793 12 7 11.8324 7 11.625C7 11.4176 7.16793 11.25 7.375 11.25V6.75ZM8.125 8.0625C8.125 8.16563 8.20938 8.25 8.3125 8.25H9.8125C9.91563 8.25 10 8.16563 10 8.0625V6.9375C10 6.83391 9.91563 6.75 9.8125 6.75H8.3125C8.20938 6.75 8.125 6.83391 8.125 6.9375V8.0625Z" fill="black"/>
</svg>
