<svg width="19" height="19" viewBox="0 0 19 19" fill="none" xmlns="http://www.w3.org/2000/svg">
<circle cx="9.5" cy="9.5" r="8.5" fill="white" stroke="black" stroke-width="0.3"/>
<path d="M6.03711 11V8.47461H5.09375V8.13672H7.36328V8.47461H6.41602V11H6.03711ZM7.75391 11V8.13672H8.83398C9.02409 8.13672 9.16927 8.14583 9.26953 8.16406C9.41016 8.1875 9.52799 8.23242 9.62305 8.29883C9.7181 8.36393 9.79427 8.45573 9.85156 8.57422C9.91016 8.69271 9.93945 8.82292 9.93945 8.96484C9.93945 9.20833 9.86198 9.41471 9.70703 9.58398C9.55208 9.75195 9.27214 9.83594 8.86719 9.83594H8.13281V11H7.75391ZM8.13281 9.49805H8.87305C9.11784 9.49805 9.29167 9.45247 9.39453 9.36133C9.4974 9.27018 9.54883 9.14193 9.54883 8.97656C9.54883 8.85677 9.51823 8.75456 9.45703 8.66992C9.39714 8.58398 9.31771 8.52734 9.21875 8.5C9.15495 8.48307 9.03711 8.47461 8.86523 8.47461H8.13281V9.49805ZM12.3008 8.13672H12.6797V9.79102C12.6797 10.0788 12.6471 10.3073 12.582 10.4766C12.5169 10.6458 12.3991 10.7839 12.2285 10.8906C12.0592 10.9961 11.8366 11.0488 11.5605 11.0488C11.2923 11.0488 11.0729 11.0026 10.9023 10.9102C10.7318 10.8177 10.61 10.6842 10.5371 10.5098C10.4642 10.334 10.4277 10.0944 10.4277 9.79102V8.13672H10.8066V9.78906C10.8066 10.0378 10.8294 10.2214 10.875 10.3398C10.9219 10.457 11.0013 10.5475 11.1133 10.6113C11.2266 10.6751 11.3646 10.707 11.5273 10.707C11.806 10.707 12.0046 10.6439 12.123 10.5176C12.2415 10.3913 12.3008 10.1484 12.3008 9.78906V8.13672Z" fill="black"/>
</svg>
